ffmpeg started on 2016-12-07 at 11:08:06
Report written to "Output/x264/results/ffmpeg/crowd_run_2160p50slow6000k.log"
Command line:
Tools/ffmpeg/ffmpeg -benchmark -y -i Input/y4m/crowd_run_2160p50.y4m -c:v libx264 -preset slow -b:v 6000k -an Output/x264/encoded/crowd_run_2160p50slow6000k.mkv
ffmpeg version N-82227-gdb23fde Copyright (c) 2000-2016 the FFmpeg developers
  built with gcc 5.4.0 (Ubuntu 5.4.0-6ubuntu1~16.04.2) 20160609
  configuration: --prefix=/home/jaroslav/ffmpeg_build --pkg-config-flags=--static --extra-cflags=-I/home/jaroslav/ffmpeg_build/include --extra-ldflags=-L/home/jaroslav/ffmpeg_build/lib --bindir=/home/jaroslav/bin --enable-gpl --enable-libass --enable-libfdk-aac --enable-libfreetype --enable-libmp3lame --enable-libopus --enable-libtheora --enable-libvorbis --enable-libvpx --enable-libx264 --enable-libx265 --enable-nvenc --enable-libmfx --enable-libxvid --enable-libgsm --enable-libopencore-amrnb --enable-version3 --enable-nonfree
  libavutil      55. 35.100 / 55. 35.100
  libavcodec     57. 66.101 / 57. 66.101
  libavformat    57. 57.100 / 57. 57.100
  libavdevice    57.  2.100 / 57.  2.100
  libavfilter     6. 66.100 /  6. 66.100
  libswscale      4.  3.100 /  4.  3.100
  libswresample   2.  4.100 /  2.  4.100
  libpostproc    54.  2.100 / 54.  2.100
Input #0, yuv4mpegpipe, from 'Input/y4m/crowd_run_2160p50.y4m':
  Duration: 00:00:10.00, start: 0.000000, bitrate: 4976642 kb/s
    Stream #0:0: Video: rawvideo (I420 / 0x30323449), yuv420p(progressive), 3840x2160, SAR 1:1 DAR 16:9, 50 fps, 50 tbr, 50 tbn, 50 tbc
[libx264 @ 0x26ba1c0] using SAR=1/1
[libx264 @ 0x26ba1c0] using cpu capabilities: MMX2 SSE2Fast SSSE3 SSE4.2 AVX FMA3 AVX2 LZCNT BMI2
[libx264 @ 0x26ba1c0] profile High, level 5.2
[libx264 @ 0x26ba1c0] 264 - core 148 - H.264/MPEG-4 AVC codec - Copyleft 2003-2016 - http://www.videolan.org/x264.html - options: cabac=1 ref=5 deblock=1:0:0 analyse=0x3:0x113 me=hex subme=8 psy=1 psy_rd=1.00:0.00 mixed_ref=1 me_range=16 chroma_me=1 trellis=2 8x8dct=1 cqm=0 deadzone=21,11 fast_pskip=1 chroma_qp_offset=-2 threads=6 lookahead_threads=1 sliced_threads=0 nr=0 decimate=1 interlaced=0 bluray_compat=0 constrained_intra=0 bframes=3 b_pyramid=2 b_adapt=1 b_bias=0 direct=3 weightb=1 open_gop=0 weightp=2 keyint=250 keyint_min=25 scenecut=40 intra_refresh=0 rc_lookahead=50 rc=abr mbtree=1 bitrate=6000 ratetol=1.0 qcomp=0.60 qpmin=0 qpmax=69 qpstep=4 ip_ratio=1.40 aq=1:1.00
Output #0, matroska, to 'Output/x264/encoded/crowd_run_2160p50slow6000k.mkv':
  Metadata:
    encoder         : Lavf57.57.100
    Stream #0:0: Video: h264 (libx264) (H264 / 0x34363248), yuv420p, 3840x2160 [SAR 1:1 DAR 16:9], q=-1--1, 6000 kb/s, 50 fps, 1k tbn, 50 tbc
    Metadata:
      encoder         : Lavc57.66.101 libx264
    Side data:
      cpb: bitrate max/min/avg: 0/0/6000000 buffer size: 0 vbv_delay: -1
Stream mapping:
  Stream #0:0 -> #0:0 (rawvideo (native) -> h264 (libx264))
Press [q] to stop, [?] for help
frame=   15 fps=0.0 q=0.0 size=       0kB time=00:00:00.00 bitrate=N/A speed=   0x    frame=   26 fps= 24 q=0.0 size=       0kB time=00:00:00.00 bitrate=N/A speed=   0x    frame=   33 fps= 20 q=0.0 size=       0kB time=00:00:00.00 bitrate=N/A speed=   0x    frame=   46 fps= 21 q=0.0 size=       0kB time=00:00:00.00 bitrate=N/A speed=   0x    frame=   57 fps= 11 q=0.0 size=       0kB time=00:00:00.00 bitrate=N/A speed=   0x    frame=   62 fps= 10 q=39.0 size=       1kB time=-00:00:00.01 bitrate=N/A speed=N/A    frame=   65 fps=9.7 q=48.0 size=       1kB time=00:00:00.04 bitrate= 143.2kbits/s speed=0.00614x    frame=   70 fps=9.6 q=52.0 size=       1kB time=00:00:00.14 bitrate=  41.6kbits/s speed=0.0194x    frame=   74 fps=9.5 q=55.0 size=       1kB time=00:00:00.22 bitrate=  26.6kbits/s speed=0.0283x    frame=   79 fps=9.4 q=54.0 size=       1kB time=00:00:00.32 bitrate=  18.3kbits/s speed=0.0384x    frame=   84 fps=9.5 q=53.0 size=       1kB time=00:00:00.42 bitrate=  13.9kbits/s speed=0.0474x    frame=   91 fps=9.5 q=53.0 size=       1kB time=00:00:00.56 bitrate=  10.5kbits/s speed=0.0586x    frame=   98 fps=9.7 q=52.0 size=       1kB time=00:00:00.70 bitrate=   8.4kbits/s speed=0.0694x    frame=  103 fps=9.7 q=52.0 size=       1kB time=00:00:00.80 bitrate=   7.3kbits/s speed=0.0754x    frame=  107 fps=9.5 q=52.0 size=       1kB time=00:00:00.88 bitrate=   6.7kbits/s speed=0.0786x    frame=  114 fps=9.6 q=52.0 size=       1kB time=00:00:01.02 bitrate=   5.8kbits/s speed=0.0863x    frame=  120 fps=9.6 q=52.0 size=       1kB time=00:00:01.14 bitrate=   5.1kbits/s speed=0.0916x    frame=  125 fps=9.6 q=51.0 size=       1kB time=00:00:01.24 bitrate=   4.7kbits/s speed=0.0955x    frame=  131 fps=9.5 q=51.0 size=       1kB time=00:00:01.36 bitrate=   4.3kbits/s speed=0.0992x    frame=  139 fps=9.6 q=51.0 size=       1kB time=00:00:01.52 bitrate=   3.9kbits/s speed=0.105x    frame=  145 fps=9.7 q=51.0 size=       1kB time=00:00:01.64 bitrate=   3.6kbits/s speed=0.109x    frame=  151 fps=9.7 q=51.0 size=       1kB time=00:00:01.76 bitrate=   3.3kbits/s speed=0.113x    frame=  155 fps=9.6 q=51.0 size=       1kB time=00:00:01.84 bitrate=   3.2kbits/s speed=0.114x    frame=  162 fps=9.7 q=51.0 size=       1kB time=00:00:01.98 bitrate=   3.0kbits/s speed=0.119x    frame=  167 fps=9.7 q=51.0 size=       1kB time=00:00:02.08 bitrate=   2.8kbits/s speed=0.121x    frame=  172 fps=9.7 q=50.0 size=       1kB time=00:00:02.18 bitrate=   2.7kbits/s speed=0.123x    frame=  177 fps=9.7 q=50.0 size=       1kB time=00:00:02.28 bitrate=   2.6kbits/s speed=0.125x    frame=  180 fps=9.6 q=50.0 size=       1kB time=00:00:02.34 bitrate=   2.5kbits/s speed=0.124x    frame=  185 fps=9.6 q=50.0 size=       1kB time=00:00:02.44 bitrate=   2.4kbits/s speed=0.126x    frame=  191 fps=9.6 q=50.0 size=       1kB time=00:00:02.56 bitrate=   2.3kbits/s speed=0.128x    frame=  197 fps=9.6 q=50.0 size=       1kB time=00:00:02.68 bitrate=   2.2kbits/s speed=0.131x    frame=  202 fps=9.6 q=50.0 size=       1kB time=00:00:02.78 bitrate=   2.1kbits/s speed=0.133x    frame=  207 fps=9.6 q=50.0 size=       1kB time=00:00:02.88 bitrate=   2.0kbits/s speed=0.134x    frame=  211 fps=9.6 q=50.0 size=       1kB time=00:00:02.96 bitrate=   2.0kbits/s speed=0.134x    frame=  215 fps=9.5 q=50.0 size=       1kB time=00:00:03.04 bitrate=   1.9kbits/s speed=0.134x    frame=  221 fps=9.5 q=50.0 size=       1kB time=00:00:03.16 bitrate=   1.9kbits/s speed=0.136x    frame=  227 fps=9.5 q=50.0 size=       1kB time=00:00:03.28 bitrate=   1.8kbits/s speed=0.137x    frame=  233 fps=9.5 q=50.0 size=       1kB time=00:00:03.40 bitrate=   1.7kbits/s speed=0.139x    frame=  239 fps=9.5 q=50.0 size=       1kB time=00:00:03.52 bitrate=   1.7kbits/s speed=0.14x    frame=  247 fps=9.5 q=50.0 size=       1kB time=00:00:03.68 bitrate=   1.6kbits/s speed=0.142x    frame=  253 fps=9.6 q=50.0 size=       1kB time=00:00:03.80 bitrate=   1.5kbits/s speed=0.144x    frame=  256 fps=9.5 q=50.0 size=       1kB time=00:00:03.86 bitrate=   1.5kbits/s speed=0.143x    frame=  263 fps=9.5 q=50.0 size=       1kB time=00:00:04.00 bitrate=   1.5kbits/s speed=0.144x    frame=  270 fps=9.5 q=50.0 size=       1kB time=00:00:04.14 bitrate=   1.4kbits/s speed=0.146x    frame=  276 fps=9.5 q=50.0 size=       1kB time=00:00:04.26 bitrate=   1.4kbits/s speed=0.147x    frame=  280 fps=9.5 q=50.0 size=       1kB time=00:00:04.34 bitrate=   1.4kbits/s speed=0.147x    frame=  287 fps=9.5 q=50.0 size=       1kB time=00:00:04.48 bitrate=   1.3kbits/s speed=0.148x    frame=  292 fps=9.5 q=50.0 size=       1kB time=00:00:04.58 bitrate=   1.3kbits/s speed=0.149x    frame=  296 fps=9.4 q=50.0 size=       1kB time=00:00:04.66 bitrate=   1.3kbits/s speed=0.148x    frame=  302 fps=9.5 q=50.0 size=       1kB time=00:00:04.78 bitrate=   1.2kbits/s speed=0.15x    frame=  306 fps=9.1 q=47.0 size=       1kB time=00:00:04.86 bitrate=   1.2kbits/s speed=0.145x    frame=  314 fps=9.2 q=50.0 size=    3782kB time=00:00:05.02 bitrate=6171.0kbits/s speed=0.147x    frame=  319 fps=9.2 q=50.0 size=    3782kB time=00:00:05.12 bitrate=6050.5kbits/s speed=0.148x    frame=  323 fps=9.2 q=50.0 size=    3782kB time=00:00:05.20 bitrate=5957.4kbits/s speed=0.148x    frame=  329 fps=9.2 q=50.0 size=    3782kB time=00:00:05.32 bitrate=5823.0kbits/s speed=0.148x    frame=  336 fps=9.2 q=50.0 size=    3782kB time=00:00:05.46 bitrate=5673.8kbits/s speed=0.15x    frame=  339 fps=9.2 q=50.0 size=    3782kB time=00:00:05.52 bitrate=5612.1kbits/s speed=0.15x    frame=  345 fps=9.2 q=50.0 size=    3782kB time=00:00:05.64 bitrate=5492.7kbits/s speed=0.15x    frame=  351 fps=9.2 q=50.0 size=    3782kB time=00:00:05.76 bitrate=5378.3kbits/s speed=0.152x    frame=  354 fps=9.2 q=50.0 size=    3782kB time=00:00:05.82 bitrate=5322.9kbits/s speed=0.151x    frame=  361 fps=9.2 q=50.0 size=    3782kB time=00:00:05.96 bitrate=5197.9kbits/s speed=0.152x    frame=  367 fps=9.2 q=50.0 size=    3782kB time=00:00:06.08 bitrate=5095.3kbits/s speed=0.153x    frame=  371 fps=9.2 q=50.0 size=    3782kB time=00:00:06.16 bitrate=5029.1kbits/s speed=0.153x    frame=  376 fps=9.2 q=50.0 size=    3782kB time=00:00:06.26 bitrate=4948.8kbits/s speed=0.153x    frame=  383 fps=9.2 q=50.0 size=    3782kB time=00:00:06.40 bitrate=4840.6kbits/s speed=0.154x    frame=  386 fps=9.2 q=50.0 size=    3782kB time=00:00:06.46 bitrate=4795.6kbits/s speed=0.154x    frame=  393 fps=9.2 q=50.0 size=    3782kB time=00:00:06.60 bitrate=4693.9kbits/s speed=0.155x    frame=  398 fps=9.2 q=50.0 size=    3782kB time=00:00:06.70 bitrate=4623.9kbits/s speed=0.155x    frame=  402 fps=9.2 q=50.0 size=    3782kB time=00:00:06.78 bitrate=4569.3kbits/s speed=0.155x    frame=  409 fps=9.2 q=50.0 size=    3782kB time=00:00:06.92 bitrate=4476.9kbits/s speed=0.156x    frame=  416 fps=9.2 q=50.0 size=    3782kB time=00:00:07.06 bitrate=4388.1kbits/s speed=0.157x    frame=  419 fps=9.2 q=50.0 size=    3782kB time=00:00:07.12 bitrate=4351.1kbits/s speed=0.156x    frame=  424 fps=9.2 q=50.0 size=    3782kB time=00:00:07.22 bitrate=4290.9kbits/s speed=0.157x    frame=  429 fps=9.2 q=50.0 size=    3782kB time=00:00:07.32 bitrate=4232.3kbits/s speed=0.157x    frame=  434 fps=9.2 q=50.0 size=    3782kB time=00:00:07.42 bitrate=4175.2kbits/s speed=0.157x    frame=  440 fps=9.2 q=50.0 size=    3782kB time=00:00:07.54 bitrate=4108.8kbits/s speed=0.158x    frame=  445 fps=9.2 q=50.0 size=    3782kB time=00:00:07.64 bitrate=4055.0kbits/s speed=0.158x    frame=  450 fps=9.2 q=50.0 size=    3782kB time=00:00:07.74 bitrate=4002.6kbits/s speed=0.158x    frame=  457 fps=9.2 q=50.0 size=    3782kB time=00:00:07.88 bitrate=3931.5kbits/s speed=0.158x    frame=  463 fps=9.2 q=50.0 size=    3782kB time=00:00:08.00 bitrate=3872.6kbits/s speed=0.159x    frame=  467 fps=9.2 q=50.0 size=    3782kB time=00:00:08.08 bitrate=3834.2kbits/s speed=0.159x    frame=  473 fps=9.2 q=50.0 size=    3782kB time=00:00:08.20 bitrate=3778.1kbits/s speed=0.159x    frame=  478 fps=9.2 q=50.0 size=    3782kB time=00:00:08.30 bitrate=3732.6kbits/s speed=0.16x    frame=  483 fps=9.2 q=50.0 size=    3782kB time=00:00:08.40 bitrate=3688.2kbits/s speed=0.16x    frame=  487 fps=9.2 q=50.0 size=    3782kB time=00:00:08.48 bitrate=3653.4kbits/s speed=0.16x    frame=  493 fps=9.2 q=50.0 size=    3782kB time=00:00:08.60 bitrate=3602.4kbits/s speed=0.16x    frame=  500 fps=9.2 q=50.0 size=    3782kB time=00:00:08.74 bitrate=3544.7kbits/s speed=0.161x    frame=  500 fps=8.4 q=-1.0 Lsize=    7438kB time=00:00:09.94 bitrate=6129.7kbits/s speed=0.166x    
video:7434kB audio:0kB subtitle:0kB other streams:0kB global headers:0kB muxing overhead: 0.058496%
bench: utime=205.572s
bench: maxrss=2145992kB
[libx264 @ 0x26ba1c0] frame I:2     Avg QP:39.58  size:217014
[libx264 @ 0x26ba1c0] frame P:126   Avg QP:48.82  size: 28521
[libx264 @ 0x26ba1c0] frame B:372   Avg QP:50.24  size:  9635
[libx264 @ 0x26ba1c0] consecutive B-frames:  0.8%  0.0%  0.0% 99.2%
[libx264 @ 0x26ba1c0] mb I  I16..4: 36.0% 58.0%  6.0%
[libx264 @ 0x26ba1c0] mb P  I16..4:  4.6%  2.1%  0.0%  P16..4: 26.2%  1.7%  2.8%  0.0%  0.0%    skip:62.5%
[libx264 @ 0x26ba1c0] mb B  I16..4:  0.0%  0.0%  0.0%  B16..8: 25.8%  0.4%  0.0%  direct: 0.3%  skip:73.4%  L0:36.1% L1:63.7% BI: 0.2%
[libx264 @ 0x26ba1c0] final ratefactor: 41.97
[libx264 @ 0x26ba1c0] 8x8 transform intra:36.7% inter:94.9%
[libx264 @ 0x26ba1c0] direct mvs  spatial:98.9% temporal:1.1%
[libx264 @ 0x26ba1c0] coded y,uvDC,uvAC intra: 12.3% 39.7% 8.2% inter: 0.7% 4.0% 0.0%
[libx264 @ 0x26ba1c0] i16 v,h,dc,p: 43% 24%  7% 26%
[libx264 @ 0x26ba1c0] i8 v,h,dc,ddl,ddr,vr,hd,vl,hu:  8%  4% 23% 11% 13% 12% 12%  9%  8%
[libx264 @ 0x26ba1c0] i4 v,h,dc,ddl,ddr,vr,hd,vl,hu:  6%  3%  1% 15% 18% 15% 16% 11% 15%
[libx264 @ 0x26ba1c0] i8c dc,h,v,p: 67% 15% 12%  6%
[libx264 @ 0x26ba1c0] Weighted P-Frames: Y:1.6% UV:0.8%
[libx264 @ 0x26ba1c0] ref P L0: 67.5%  1.3% 18.7%  5.9%  6.4%  0.1%
[libx264 @ 0x26ba1c0] ref B L0: 91.4%  6.2%  1.8%  0.6%
[libx264 @ 0x26ba1c0] ref B L1: 97.8%  2.2%
[libx264 @ 0x26ba1c0] kb/s:6089.44
